<mxfile host="app.diagrams.net" agent="Mozilla/5.0 (Windows NT 10.0; Win64; x64) AppleWebKit/537.36 (KHTML, like Gecko) Chrome/132.0.0.0 Safari/537.36" version="26.0.10" pages="2">
  <diagram name="INICIO" id="jP-iUpd2xchJR0LyYfv3">
    <mxGraphModel dx="880" dy="434" grid="1" gridSize="10" guides="1" tooltips="1" connect="1" arrows="1" fold="1" page="1" pageScale="1" pageWidth="827" pageHeight="1169" math="0" shadow="0">
      <root>
        <mxCell id="0" />
        <mxCell id="1" parent="0" />
        <mxCell id="EBBeZFtdRRJlITrYkyMN-1" value="INICIO" style="strokeWidth=2;html=1;shape=mxgraph.flowchart.start_1;whiteSpace=wrap;" vertex="1" parent="1">
          <mxGeometry x="200" y="30" width="100" height="60" as="geometry" />
        </mxCell>
        <mxCell id="EBBeZFtdRRJlITrYkyMN-2" value="FIM" style="strokeWidth=2;html=1;shape=mxgraph.flowchart.start_1;whiteSpace=wrap;" vertex="1" parent="1">
          <mxGeometry x="200" y="400" width="100" height="60" as="geometry" />
        </mxCell>
        <mxCell id="EBBeZFtdRRJlITrYkyMN-3" value="SALÁRIO&lt;div&gt;IR&lt;/div&gt;" style="html=1;strokeWidth=2;shape=manualInput;whiteSpace=wrap;rounded=1;size=26;arcSize=11;" vertex="1" parent="1">
          <mxGeometry x="200" y="120" width="100" height="60" as="geometry" />
        </mxCell>
        <UserObject label="CONTRACHEQUE" link="data:page/id,9RtfJS6hk5lZc1AQqAhl" id="EBBeZFtdRRJlITrYkyMN-4">
          <mxCell style="verticalLabelPosition=bottom;verticalAlign=top;html=1;shape=process;whiteSpace=wrap;rounded=1;size=0.14;arcSize=6;" vertex="1" parent="1">
            <mxGeometry x="200" y="290" width="100" height="60" as="geometry" />
          </mxCell>
        </UserObject>
        <mxCell id="EBBeZFtdRRJlITrYkyMN-8" style="edgeStyle=orthogonalEdgeStyle;rounded=0;orthogonalLoop=1;jettySize=auto;html=1;exitX=0.5;exitY=1;exitDx=0;exitDy=0;exitPerimeter=0;entryX=0.5;entryY=0;entryDx=0;entryDy=0;" edge="1" parent="1" source="EBBeZFtdRRJlITrYkyMN-5" target="EBBeZFtdRRJlITrYkyMN-4">
          <mxGeometry relative="1" as="geometry" />
        </mxCell>
        <mxCell id="EBBeZFtdRRJlITrYkyMN-5" value="SALLIQ" style="strokeWidth=2;html=1;shape=mxgraph.flowchart.display;whiteSpace=wrap;" vertex="1" parent="1">
          <mxGeometry x="190" y="200" width="100" height="60" as="geometry" />
        </mxCell>
        <mxCell id="EBBeZFtdRRJlITrYkyMN-6" style="edgeStyle=orthogonalEdgeStyle;rounded=0;orthogonalLoop=1;jettySize=auto;html=1;exitX=0.5;exitY=1;exitDx=0;exitDy=0;exitPerimeter=0;entryX=0.5;entryY=0.2;entryDx=0;entryDy=0;entryPerimeter=0;" edge="1" parent="1" source="EBBeZFtdRRJlITrYkyMN-1" target="EBBeZFtdRRJlITrYkyMN-3">
          <mxGeometry relative="1" as="geometry" />
        </mxCell>
        <mxCell id="EBBeZFtdRRJlITrYkyMN-7" style="edgeStyle=orthogonalEdgeStyle;rounded=0;orthogonalLoop=1;jettySize=auto;html=1;exitX=0.5;exitY=1;exitDx=0;exitDy=0;entryX=0.59;entryY=-0.033;entryDx=0;entryDy=0;entryPerimeter=0;" edge="1" parent="1" source="EBBeZFtdRRJlITrYkyMN-3" target="EBBeZFtdRRJlITrYkyMN-5">
          <mxGeometry relative="1" as="geometry" />
        </mxCell>
        <mxCell id="EBBeZFtdRRJlITrYkyMN-9" style="edgeStyle=orthogonalEdgeStyle;rounded=0;orthogonalLoop=1;jettySize=auto;html=1;exitX=0.5;exitY=1;exitDx=0;exitDy=0;entryX=0.5;entryY=0;entryDx=0;entryDy=0;entryPerimeter=0;" edge="1" parent="1" source="EBBeZFtdRRJlITrYkyMN-4" target="EBBeZFtdRRJlITrYkyMN-2">
          <mxGeometry relative="1" as="geometry" />
        </mxCell>
      </root>
    </mxGraphModel>
  </diagram>
  <diagram id="9RtfJS6hk5lZc1AQqAhl" name="CONTRACHQUE">
    <mxGraphModel dx="880" dy="434" grid="1" gridSize="10" guides="1" tooltips="1" connect="1" arrows="1" fold="1" page="1" pageScale="1" pageWidth="827" pageHeight="1169" math="0" shadow="0">
      <root>
        <mxCell id="0" />
        <mxCell id="1" parent="0" />
        <mxCell id="OgS4wxZaIuRwibSe0BbJ-1" value="INICIO" style="strokeWidth=2;html=1;shape=mxgraph.flowchart.start_1;whiteSpace=wrap;" vertex="1" parent="1">
          <mxGeometry x="280" y="30" width="100" height="60" as="geometry" />
        </mxCell>
        <mxCell id="OgS4wxZaIuRwibSe0BbJ-2" value="FIM" style="strokeWidth=2;html=1;shape=mxgraph.flowchart.start_1;whiteSpace=wrap;" vertex="1" parent="1">
          <mxGeometry x="275" y="360" width="100" height="60" as="geometry" />
        </mxCell>
        <mxCell id="OgS4wxZaIuRwibSe0BbJ-3" value="SALARIO&lt;div&gt;IR&lt;/div&gt;" style="html=1;strokeWidth=2;shape=manualInput;whiteSpace=wrap;rounded=1;size=26;arcSize=11;" vertex="1" parent="1">
          <mxGeometry x="270" y="130" width="100" height="60" as="geometry" />
        </mxCell>
        <mxCell id="OgS4wxZaIuRwibSe0BbJ-4" value="SALLIQ = SLARIO - IR" style="rounded=1;whiteSpace=wrap;html=1;absoluteArcSize=1;arcSize=14;strokeWidth=2;" vertex="1" parent="1">
          <mxGeometry x="250" y="240" width="150" height="50" as="geometry" />
        </mxCell>
        <mxCell id="OgS4wxZaIuRwibSe0BbJ-5" style="edgeStyle=orthogonalEdgeStyle;rounded=0;orthogonalLoop=1;jettySize=auto;html=1;exitX=0.5;exitY=1;exitDx=0;exitDy=0;exitPerimeter=0;entryX=0.6;entryY=0.15;entryDx=0;entryDy=0;entryPerimeter=0;" edge="1" parent="1" source="OgS4wxZaIuRwibSe0BbJ-1" target="OgS4wxZaIuRwibSe0BbJ-3">
          <mxGeometry relative="1" as="geometry" />
        </mxCell>
        <mxCell id="OgS4wxZaIuRwibSe0BbJ-6" style="edgeStyle=orthogonalEdgeStyle;rounded=0;orthogonalLoop=1;jettySize=auto;html=1;exitX=0.5;exitY=1;exitDx=0;exitDy=0;entryX=0.46;entryY=-0.08;entryDx=0;entryDy=0;entryPerimeter=0;" edge="1" parent="1" source="OgS4wxZaIuRwibSe0BbJ-3" target="OgS4wxZaIuRwibSe0BbJ-4">
          <mxGeometry relative="1" as="geometry" />
        </mxCell>
        <mxCell id="OgS4wxZaIuRwibSe0BbJ-7" style="edgeStyle=orthogonalEdgeStyle;rounded=0;orthogonalLoop=1;jettySize=auto;html=1;exitX=0.5;exitY=1;exitDx=0;exitDy=0;entryX=0.5;entryY=0;entryDx=0;entryDy=0;entryPerimeter=0;" edge="1" parent="1" source="OgS4wxZaIuRwibSe0BbJ-4" target="OgS4wxZaIuRwibSe0BbJ-2">
          <mxGeometry relative="1" as="geometry" />
        </mxCell>
      </root>
    </mxGraphModel>
  </diagram>
</mxfile>
